<svg xmlns="http://www.w3.org/2000/svg" width="40" height="40" viewBox="0 0 224 224">
  <path fill="#3776AB" d="M112 0C50.148 0 0 50.148 0 112s50.148 112 112 112 112-50.148 112-112S173.852 0 112 0zm0 206.783C57.59 206.783 17.217 166.41 17.217 112 17.217 57.59 57.59 17.217 112 17.217c54.41 0 94.783 40.373 94.783 94.783 0 54.41-40.373 94.783-94.783 94.783z"/>
  <path fill="#FFD43B" d="M76.97 95.652c0-6.936 5.644-12.579 12.579-12.579h14.174c6.936 0 12.579 5.643 12.579 12.579v46.956c0 6.936-5.643 12.579-12.579 12.579H89.55c-6.935 0-12.579-5.643-12.579-12.579v-7.066h19.307v6.718c0 1.614.68 2.57 2.348 2.57h4.243c1.668 0 2.347-.956 2.347-2.57v-55.13c0-1.614-.68-2.57-2.347-2.57h-4.243c-1.668 0-2.348.956-2.348 2.57v6.719H76.97v-7.066zm54.058-2.57c3.244 0 5.86 2.616 5.86 5.86v40.74c0 3.243-2.616 5.859-5.86 5.859h-14.705c-3.244 0-5.86-2.616-5.86-5.86v-40.74c0-3.244 2.616-5.86 5.86-5.86H131.03zm-29.97 9.01c1.614 0 2.57.68 2.57 2.347v33.256c0 1.667-.956 2.346-2.57 2.346h-2.916c-1.666 0-2.345-.68-2.345-2.346v-33.256c0-1.667.68-2.347 2.345-2.347h2.916zm-28.812 9.01h8.152v10.246c0 3.717.764 5.05 3.52 5.05h1.867c.847 0 1.823-.17 2.618-.764l2.67-1.897v7.44c0 1.384.8 1.9 2.347 1.9h4.243c1.547 0 2.348-.516 2.348-1.9v-55.13c0-1.384-.8-1.9-2.348-1.9h-4.243c-1.547 0-2.347.516-2.347 1.9v25.077h-8.38c-3.242 0-5.324 1.89-5.324 5.05v11.344c0 3.244 2.082 5.134 5.324 5.134h8.38v25.08c0 1.384.8 1.897 2.347 1.897h4.243c1.548 0 2.347-.513 2.347-1.897v-7.414c0-1.613-.923-2.228-2.347-2.228h-1.686c-1.437 0-1.977-.4-2.365-1.737l-3.113-9.416c-.586-1.776-.882-3.446-.882-5.79v-11.343c0-3.16 2.082-5.05 5.324-5.05z"/>
</svg>
